<svg width="49" height="31" viewBox="0 0 49 31" fill="none" xmlns="http://www.w3.org/2000/svg">
<path d="M48.8749 15.5C48.8749 15.9061 48.6609 16.2956 48.2799 16.5828C47.899 16.8699 47.3824 17.0312 46.8436 17.0312H7.05907L21.8745 28.1979C22.0632 28.3402 22.2129 28.5091 22.3151 28.6949C22.4172 28.8808 22.4698 29.08 22.4698 29.2812C22.4698 29.4824 22.4172 29.6817 22.3151 29.8676C22.2129 30.0534 22.0632 30.2223 21.8745 30.3646C21.6858 30.5069 21.4617 30.6197 21.2151 30.6967C20.9686 30.7737 20.7043 30.8134 20.4374 30.8134C20.1705 30.8134 19.9062 30.7737 19.6596 30.6967C19.4131 30.6197 19.189 30.5069 19.0003 30.3646L0.719029 16.5834C0.530171 16.4411 0.380348 16.2723 0.278127 16.0864C0.175906 15.9005 0.123291 15.7012 0.123291 15.5C0.123291 15.2988 0.175906 15.0995 0.278127 14.9136C0.380348 14.7277 0.530171 14.5588 0.719029 14.4166L19.0003 0.635388C19.3814 0.348063 19.8984 0.186646 20.4374 0.186646C20.9764 0.186646 21.4934 0.348063 21.8745 0.635388C22.2556 0.922712 22.4698 1.31241 22.4698 1.71875C22.4698 2.12509 22.2556 2.51478 21.8745 2.80211L7.05907 13.9687H46.8436C47.3824 13.9687 47.899 14.1301 48.2799 14.4172C48.6609 14.7044 48.8749 15.0939 48.8749 15.5Z" fill="#1044FD"/>
</svg>
